<svg width="35" height="35" viewBox="0 0 35 35" fill="none" xmlns="http://www.w3.org/2000/svg">
<path d="M34.8948 32.4842L23.533 21.1224C25.2961 18.843 26.2499 16.0562 26.2499 13.1249C26.2499 9.61621 24.8805 6.32622 22.4043 3.84561C19.928 1.36499 16.6293 0 13.1249 0C9.62058 0 6.32185 1.36937 3.84561 3.84561C1.36499 6.32185 0 9.61621 0 13.1249C0 16.6293 1.36937 19.928 3.84561 22.4043C6.32185 24.8849 9.61621 26.2499 13.1249 26.2499C16.0562 26.2499 18.8387 25.2961 21.118 23.5374L32.4799 34.8948C32.5132 34.9282 32.5527 34.9546 32.5963 34.9727C32.6398 34.9907 32.6865 35 32.7336 35C32.7807 35 32.8274 34.9907 32.8709 34.9727C32.9145 34.9546 32.954 34.9282 32.9874 34.8948L34.8948 32.9917C34.9282 32.9584 34.9546 32.9189 34.9727 32.8753C34.9907 32.8318 35 32.7851 35 32.738C35 32.6909 34.9907 32.6442 34.9727 32.6006C34.9546 32.5571 34.9282 32.5175 34.8948 32.4842ZM20.0549 20.0549C18.1999 21.9055 15.7412 22.9249 13.1249 22.9249C10.5087 22.9249 8.04996 21.9055 6.19497 20.0549C4.34436 18.1999 3.32499 15.7412 3.32499 13.1249C3.32499 10.5087 4.34436 8.04559 6.19497 6.19497C8.04996 4.34436 10.5087 3.32499 13.1249 3.32499C15.7412 3.32499 18.2043 4.33998 20.0549 6.19497C21.9055 8.04996 22.9249 10.5087 22.9249 13.1249C22.9249 15.7412 21.9055 18.2043 20.0549 20.0549Z" fill="#130505"/>
</svg>
